<svg xmlns="http://www.w3.org/2000/svg" width="148" height="112" viewBox="0 0 148 112" fill="none">
  <path d="M80 93c8-23 28-41 52-50" stroke="#80936D" stroke-width="2" stroke-linecap="round"/>
  <path d="M99 75c-1-16 4-29 17-38 6 15 2 28-17 38Z" fill="#F4F8EF" stroke="#80936D" stroke-width="2"/>
  <path d="M113 63c2-14 9-25 23-31 3 15-3 26-23 31Z" fill="#F4F8EF" stroke="#80936D" stroke-width="2"/>
  <path d="M85 91c-18-7-31-20-37-39 18 1 31 14 37 39Z" fill="#F4F8EF" stroke="#80936D" stroke-width="2"/>
  <path d="M101 79c-17-3-31-12-40-28 17-3 31 6 40 28Z" fill="#F4F8EF" stroke="#80936D" stroke-width="2"/>
  <path d="M103 41c-6-14-6-28 2-41 10 12 9 26-2 41Z" fill="#F4F8EF" stroke="#80936D" stroke-width="2"/>
  <path d="M65 86c-8 0-14-5-16-12 7-3 15 0 19 6 2 4 0 6-3 6Z" fill="#A8754C"/>
  <path d="M78 75c-8 0-14-5-16-12 7-3 15 0 19 6 2 4 0 6-3 6Z" fill="#A8754C"/>
  <path d="M56 73c5 1 9 4 12 8" stroke="#F2DAC3" stroke-width="1.5" stroke-linecap="round"/>
  <path d="M69 62c5 1 9 4 12 8" stroke="#F2DAC3" stroke-width="1.5" stroke-linecap="round"/>
</svg>
