<svg width="296" height="80" viewBox="0 0 296 80" fill="none" xmlns="http://www.w3.org/2000/svg" role="img" aria-labelledby="title desc">
  <title id="title">PalmPay</title>
  <desc id="desc">PalmPay demo logo with a palm-vein payment mark.</desc>
  <rect x="2" y="8" width="64" height="64" rx="16" fill="#6F3F24"/>
  <path d="M22 43V27.8C22 25.8 23.6 24.2 25.6 24.2C27.6 24.2 29.2 25.8 29.2 27.8V41.8" stroke="#FFF7EC" stroke-width="4.5" stroke-linecap="round"/>
  <path d="M29.2 41.3V23.8C29.2 21.8 30.8 20.2 32.8 20.2C34.8 20.2 36.4 21.8 36.4 23.8V41.8" stroke="#FFF7EC" stroke-width="4.5" stroke-linecap="round"/>
  <path d="M36.4 41.2V27.4C36.4 25.4 38 23.8 40 23.8C42 23.8 43.6 25.4 43.6 27.4V45.3" stroke="#FFF7EC" stroke-width="4.5" stroke-linecap="round"/>
  <path d="M22 43L18.3 38.7C17 37.2 14.8 37 13.3 38.3C11.8 39.6 11.6 41.9 12.9 43.4L26 58.2C27.8 60.2 30.4 61.4 33.1 61.4H36.8C42.5 61.4 47.1 56.8 47.1 51.1V33.6C47.1 31.7 45.6 30.2 43.7 30.2" stroke="#FFF7EC" stroke-width="4.5" stroke-linecap="round" stroke-linejoin="round"/>
  <path d="M29.7 49.4C31.9 47 35 45.5 38.5 45.5" stroke="#91D2BD" stroke-width="3" stroke-linecap="round"/>
  <path d="M33.5 53.2C35 51.8 36.9 50.9 39.1 50.9" stroke="#91D2BD" stroke-width="3" stroke-linecap="round"/>
  <path d="M51 19.5C54.2 21.8 56.3 25.4 56.3 29.5" stroke="#F6C15A" stroke-width="3.2" stroke-linecap="round"/>
  <path d="M50.6 26.8C51.6 27.7 52.2 28.9 52.2 30.3" stroke="#F6C15A" stroke-width="3.2" stroke-linecap="round"/>
  <text x="82" y="44" fill="#21160F" font-family="Arial, Helvetica, sans-serif" font-size="33" font-weight="800" letter-spacing="0">PalmPay</text>
  <text x="84" y="62" fill="#7A4A2A" font-family="Arial, Helvetica, sans-serif" font-size="13" font-weight="700" letter-spacing="1.3">COFFEE CHECKOUT DEMO</text>
</svg>
